<svg xmlns="http://www.w3.org/2000/svg" width="260.001" height="96" viewBox="0 0 260.001 96"><defs><style>.cls-2{fill:#002caa}</style></defs><g id="seciton01-logo-delio" transform="translate(-373.83 -349.485)"><path id="area" fill="none" d="M0 0h260v96H0z" transform="translate(373.83 349.485)"/><g id="그룹_19359"><path id="사각형_114" d="M0 0h16.082v80.412H0z" class="cls-2" transform="translate(518.572 365.073)"/><g id="그룹_17246" transform="translate(538.254 349.91)"><path id="사각형_115" d="M0 0h16.082v64.33H0z" class="cls-2" transform="translate(7.121 31.245)"/><circle id="타원_24" cx="10.722" cy="10.722" r="10.722" class="cls-2" transform="rotate(-45 18.303 7.582)"/></g><path id="패스_8121" d="M674.314 392.756a32.165 32.165 0 1032.166 32.165 32.165 32.165 0 00-32.166-32.165zm0 48.247a16.082 16.082 0 1116.086-16.082A16.083 16.083 0 01674.314 441z" class="cls-2" transform="translate(-72.648 -11.601)"/><path id="패스_8122" d="M422.077 370.7v48.247a16.094 16.094 0 11-3.757-10.323l-7.834-21.524a32.164 32.164 0 1027.674 31.847V370.7z" class="cls-2" transform="translate(0 -5.63)"/><path id="패스_8123" d="M505.236 441a16.075 16.075 0 01-15.148-10.721h46.859a32.151 32.151 0 10-3.582 10.238l-15.524-5.65A16.007 16.007 0 01505.236 441zm0-32.165a16.075 16.075 0 0115.148 10.721h-30.3a16.074 16.074 0 0115.152-10.717z" class="cls-2" transform="translate(-26.871 -11.601)"/></g></g></svg>